<?xml version="1.0" encoding="UTF-8"?>
<svg width="24px" fill="#44739e" height="24px" viewBox="0 0 24 24" version="1.1" xmlns="http://www.w3.org/2000/svg" xmlns:xlink="http://www.w3.org/1999/xlink">
<path d="M18.02,17.49c-0.14,0.27-0.26,0.54-0.42,0.78c-0.34,0.5-0.84,0.78-1.4,0.98c-0.59,0.21-1.19,0.33-1.81,0.4
	c-0.71,0.07-1.42,0.17-2.13,0.16c-1.21-0.01-2.42-0.08-3.58-0.44c-0.39-0.12-0.78-0.27-1.15-0.44c-0.64-0.28-1.07-0.77-1.3-1.43
	c-0.03-0.08-0.07-0.12-0.15-0.14c-0.73-0.18-1.38-0.51-1.91-1.06c-0.13-0.13-0.26-0.26-0.41-0.37c-0.11-0.08-0.24-0.15-0.37-0.19
	c-0.22-0.08-0.31-0.22-0.25-0.44c0.04-0.15,0.11-0.3,0.16-0.45c0.04-0.12,0.09-0.25,0.11-0.38c0.03-0.14-0.02-0.2-0.16-0.2
	c-0.29,0.01-0.57,0.02-0.86,0.05c-0.1,0.01-0.18,0.01-0.23-0.09c-0.06-0.1-0.14-0.2-0.19-0.3C1.3,12.62,0.9,11.24,0.83,9.76
	c-0.06-1.38,0.19-2.7,0.93-3.89C2.09,5.31,2.49,4.8,3.04,4.45C3.6,4.1,4.16,4.22,4.52,4.77C4.6,4.9,4.68,5.04,4.72,5.19
	c0.12,0.39,0.23,0.78,0.31,1.18C5.27,7.54,5.28,8.72,5.19,9.9c-0.02,0.3-0.05,0.6-0.08,0.9c0,0.04,0,0.1,0.02,0.12
	c0.26,0.25,0.37,0.58,0.43,0.92c0.13,0.63,0.24,1.26,0.35,1.9c0.01,0.05,0.02,0.1,0.03,0.17c0.01-0.02,0.02-0.03,0.03-0.04
	c0.19-0.82,0.56-1.57,1-2.29c0.16-0.26,0.33-0.51,0.52-0.74c0.14-0.17,0.33-0.27,0.55-0.32c0.03-0.01,0.07-0.02,0.1-0.05
	c0.47-0.43,1.01-0.74,1.58-1.02c0.47-0.23,0.77-0.59,0.9-1.1c0.01-0.05,0.07-0.09,0.1-0.14c0.05,0.04,0.12,0.07,0.14,0.12
	c0.05,0.14,0.08,0.29,0.12,0.44c0.1-0.08,0.21-0.17,0.34-0.24c0.18-0.1,0.37-0.18,0.56-0.25c0.06-0.02,0.14-0.01,0.21,0
	c0.15,0.02,0.18,0.11,0.09,0.23c-0.02,0.02-0.03,0.04-0.07,0.08c0.1,0,0.18-0.01,0.26,0c0.09,0.01,0.19,0.02,0.27,0.06
	c0.06,0.03,0.11,0.11,0.13,0.18c0.03,0.09-0.05,0.15-0.13,0.18c-0.07,0.03-0.15,0.05-0.25,0.08c0.24,0.02,0.44,0.04,0.65,0.06
	c1.07,0.12,2.02,0.54,2.89,1.17c0.19,0.14,0.38,0.27,0.58,0.4c0.4,0.26,0.66,0.63,0.89,1.03c0.35,0.63,0.55,1.31,0.71,2.01
	c0.02,0.07,0.03,0.14,0.05,0.24c0.1-0.36,0.19-0.69,0.28-1.02c0.16-0.6,0.35-1.19,0.68-1.72c0.15-0.24,0.09-0.5,0.08-0.76
	c-0.05-1.38-0.06-2.77,0.19-4.14c0.09-0.51,0.23-1,0.36-1.5c0.03-0.11,0.09-0.21,0.16-0.31c0.21-0.31,0.5-0.37,0.83-0.19
	c0.33,0.19,0.62,0.43,0.87,0.72c0.76,0.87,1.23,1.88,1.42,3.01c0.28,1.7,0.05,3.34-0.59,4.92c-0.11,0.26-0.19,0.53-0.29,0.8
	c-0.05,0.13-0.11,0.26-0.17,0.38c-0.12,0.21-0.31,0.3-0.55,0.28c-0.16-0.02-0.32-0.05-0.49-0.07c-0.24-0.04-0.32,0.05-0.26,0.28
	c0.05,0.18,0.14,0.36,0.2,0.54c0.07,0.19,0.07,0.37-0.03,0.57c-0.16,0.34-0.41,0.6-0.71,0.81c-0.53,0.38-1.11,0.67-1.75,0.81
	C18.27,17.46,18.13,17.47,18.02,17.49z M12.07,18.21c-0.03,0-0.07-0.01-0.1-0.01c-0.75-0.11-1.37-0.45-1.75-1.13
	c-0.47-0.83-0.26-1.93,0.44-2.57c0.45-0.42,0.98-0.61,1.59-0.55c0.54,0.05,0.97,0.32,1.33,0.72c0.47,0.52,0.7,1.12,0.56,1.83
	c-0.17,0.81-0.88,1.54-1.65,1.69c-0.07,0.01-0.14,0.02-0.23,0.03c0.03,0.09,0.05,0.18,0.07,0.26c0.02,0.08,0.06,0.1,0.15,0.1
	c0.24-0.01,0.49-0.02,0.73-0.02c0.74,0,1.49,0.02,2.23,0.02c0.25,0,0.5-0.02,0.75-0.04c0.24-0.02,0.42-0.15,0.58-0.36
	c-0.07,0-0.13,0.01-0.18,0c-0.03,0-0.05-0.03-0.07-0.05c-0.01-0.01,0.01-0.05,0.03-0.06c0.09-0.06,0.36-0.04,0.44,0.03
	c0.06,0.05,0.06,0.13-0.01,0.14c-0.15,0.01-0.18,0.16-0.28,0.23c-0.01,0.01-0.01,0.03-0.01,0.04c0.02,0.09,0.05,0.17,0.07,0.27
	c0.08-0.05,0.15-0.1,0.22-0.15c0.15-0.12,0.28-0.27,0.4-0.43c0.16-0.22,0.29-0.45,0.36-0.71c0.07-0.27,0.12-0.55,0.17-0.82
	c0.02-0.12,0.04-0.23,0.05-0.35c-0.12,0.16-0.21,0.32-0.31,0.48c-0.54,0.8-1.28,1.18-2.26,1.03c-0.66-0.11-1-0.46-1.11-1.12
	c-0.09-0.56-0.07-1.12-0.01-1.67c0.07-0.61,0.16-1.21,0.25-1.82c0.07-0.45,0.16-0.9,0.38-1.31c0.17-0.31,0.39-0.57,0.74-0.68
	c0.45-0.15,0.84-0.01,1.18,0.27c0.12,0.1,0.22,0.21,0.33,0.32c0.01-0.01,0.02-0.01,0.02-0.02c-0.09-0.13-0.17-0.26-0.27-0.39
	c-0.18-0.24-0.4-0.44-0.66-0.58c-0.23-0.12-0.47-0.17-0.73-0.13c-0.04,0.01-0.09-0.03-0.13-0.04c0.04-0.04,0.07-0.08,0.11-0.1
	s0.09-0.02,0.13-0.02c0.07-0.01,0.15-0.02,0.25-0.03c-1.03-0.74-2.15-1.14-3.41-1.17c0.06,0.08,0.12,0.14,0.16,0.22
	c0.02,0.05,0.04,0.13,0.01,0.16c-0.02,0.03-0.11,0.03-0.16,0.02c-0.24-0.09-0.48-0.2-0.72-0.3c-0.06-0.03-0.13-0.05-0.19-0.07
	c0-0.02,0.01-0.03,0.01-0.05c0.16,0.02,0.32,0.03,0.5,0.05c-0.12-0.07-0.23-0.12-0.33-0.18c-0.04-0.02-0.08-0.09-0.07-0.12
	c0.01-0.04,0.06-0.09,0.11-0.1c0.09-0.03,0.19-0.03,0.28-0.05c0.14-0.02,0.28-0.04,0.42-0.07c0-0.01,0-0.02,0-0.04
	c-0.1,0-0.2,0-0.3,0c-0.15,0.01-0.3,0.03-0.45,0.03c-0.04,0-0.1-0.03-0.11-0.06c-0.01-0.03,0.01-0.09,0.03-0.13
	c0.02-0.03,0.06-0.05,0.08-0.08c-0.08,0.02-0.15,0.06-0.22,0.1c-0.18,0.12-0.35,0.25-0.53,0.37c-0.14,0.09-0.22,0.04-0.22-0.12
	c0-0.09,0-0.17,0-0.26c-0.01,0-0.02,0-0.03-0.01c-0.15,0.5-0.51,0.79-0.95,1.01c-0.41,0.2-0.82,0.42-1.18,0.71
	c-0.03,0.02-0.06,0.05-0.08,0.07c0.13,0.05,0.24,0.1,0.36,0.15c0.02,0.01,0.03,0.05,0.04,0.08c-0.03,0.01-0.05,0.03-0.08,0.03
	c-0.1,0-0.2-0.01-0.3,0c-0.43,0.03-0.76,0.24-1.02,0.62c0.12-0.07,0.21-0.13,0.3-0.18c0.66-0.35,1.33-0.11,1.63,0.57
	c0.04,0.09,0.07,0.19,0.1,0.28c0.15,0.56,0.24,1.13,0.29,1.71c0.08,0.99-0.01,1.98-0.1,2.97c-0.04,0.47-0.28,0.78-0.75,0.88
	c-0.31,0.07-0.63,0.12-0.95,0.15c-0.41,0.04-0.78-0.09-1.07-0.39c-0.17-0.17-0.31-0.36-0.45-0.56c-0.12-0.17-0.21-0.36-0.32-0.56
	c0.12,0.81,0.23,1.61,0.9,2.2c0.04-0.14,0.07-0.27,0.11-0.4C7.17,18,7.14,18.01,7.1,18.01C7.06,18,7.01,17.98,6.96,17.97
	c0.03-0.04,0.06-0.1,0.1-0.11c0.17-0.04,0.35-0.06,0.52-0.08c0.03,0,0.08,0.04,0.08,0.07c0,0.03-0.03,0.08-0.06,0.1
	c-0.03,0.02-0.07,0.02-0.11,0.03c0,0.01-0.01,0.03-0.01,0.04c0.18,0.09,0.36,0.2,0.56,0.26c0.64,0.23,1.3,0.36,1.99,0.36
	c0.66,0,1.31-0.03,1.97-0.05c0.05,0,0.11-0.01,0.15-0.01C12.11,18.45,12.09,18.34,12.07,18.21z M5.24,16.07
	c-0.08-0.22-0.19-0.46-0.27-0.71c-0.23-0.75-0.3-1.52-0.27-2.3c0.03-0.73,0.08-1.45,0.13-2.18c0.06-0.84,0.15-1.68,0.12-2.53
	c-0.03-1-0.17-1.98-0.48-2.94C4.41,5.21,4.31,5,4.18,4.82C3.98,4.53,3.67,4.46,3.34,4.6C3.22,4.65,3.09,4.72,3,4.81
	C2.73,5.09,2.45,5.36,2.23,5.66C1.36,6.85,1.07,8.21,1.11,9.65c0.04,1.17,0.31,2.29,0.74,3.38c0.14,0.35,0.3,0.7,0.46,1.05
	c0.05-0.01,0.08-0.02,0.1-0.03c0.3-0.07,0.6-0.1,0.9-0.05c0.26,0.04,0.38,0.2,0.33,0.46c-0.03,0.18-0.11,0.35-0.17,0.52
	c-0.04,0.12-0.1,0.24-0.14,0.36c-0.04,0.12-0.01,0.17,0.11,0.2c0.11,0.03,0.23,0.04,0.34,0.08C4.29,15.77,4.77,15.93,5.24,16.07z
	 M18.58,16.38c0.2-0.1,0.37-0.19,0.55-0.27c0.18-0.08,0.38-0.14,0.57-0.19c0.25-0.07,0.5-0.12,0.75-0.18
	c0.29-0.07,0.34-0.16,0.25-0.45c-0.03-0.08-0.06-0.15-0.09-0.22c-0.04-0.09-0.08-0.18-0.1-0.28c-0.12-0.42,0.07-0.64,0.5-0.58
	c0.13,0.02,0.27,0.04,0.4,0.06c0.15,0.01,0.28-0.05,0.34-0.19c0.05-0.1,0.09-0.2,0.13-0.31c0.08-0.24,0.14-0.48,0.23-0.72
	c0.54-1.37,0.8-2.77,0.68-4.25c-0.09-1.14-0.44-2.18-1.1-3.12c-0.3-0.43-0.65-0.8-1.11-1.06c-0.19-0.11-0.33-0.09-0.43,0.11
	c-0.08,0.18-0.15,0.36-0.2,0.54c-0.21,0.81-0.35,1.62-0.41,2.46c-0.09,1.3-0.03,2.6,0.01,3.9c0.03,0.84,0.06,1.67-0.09,2.5
	c-0.13,0.71-0.32,1.4-0.72,2.02C18.69,16.21,18.64,16.29,18.58,16.38z M10.29,16.61c0.22-0.22,0.43-0.19,0.56,0.08
	c0.07,0.14,0.1,0.29,0.14,0.44c0.05,0.26,0.18,0.46,0.39,0.61c0.41,0.3,0.84,0.29,1.3,0.15c0.3-0.1,0.41-0.34,0.45-0.62
	c0.01-0.07,0.01-0.14,0.01-0.2c0.01-0.1,0.01-0.19,0.03-0.29c0.03-0.18,0.13-0.3,0.32-0.33c0.17-0.03,0.27,0.05,0.36,0.2
	c0.04-0.14,0.08-0.28,0.09-0.42c0.06-0.64-0.22-1.14-0.67-1.56c-0.33-0.31-0.73-0.51-1.2-0.5c-0.61,0.01-1.11,0.28-1.5,0.74
	c-0.11,0.13-0.22,0.27-0.27,0.42C10.16,15.74,10.18,16.17,10.29,16.61z M14.4,15.66c0.03,0.37,0.04,0.69,0.08,1
	c0.06,0.44,0.27,0.76,0.72,0.9c0.65,0.19,1.25,0.09,1.79-0.33c0.46-0.36,0.74-0.86,1.01-1.37c0.02-0.05,0.03-0.11,0.03-0.16
	c0.06-0.93-0.05-1.83-0.34-2.72c-0.03-0.1-0.06-0.2-0.12-0.29c-0.15-0.22-0.3-0.44-0.46-0.66c-0.19-0.25-0.41-0.46-0.7-0.59
	c-0.43-0.19-0.84-0.1-1.15,0.26c-0.2,0.23-0.32,0.51-0.39,0.8c-0.09,0.43-0.17,0.86-0.23,1.3C14.54,14.43,14.47,15.07,14.4,15.66z
	 M9.61,15.95c0.01,0,0.02,0,0.02,0c0-0.07,0.01-0.13,0.01-0.2c0.07-1,0.09-1.99-0.1-2.98c-0.07-0.35-0.15-0.71-0.27-1.04
	c-0.15-0.41-0.5-0.63-0.92-0.57c-0.52,0.08-0.96,0.31-1.24,0.78C7,12.13,6.9,12.32,6.8,12.52c-0.37,0.75-0.64,1.53-0.66,2.38
	c0,0.23-0.02,0.46,0.04,0.68c0.14,0.57,0.43,1.06,0.82,1.48c0.15,0.16,0.31,0.31,0.53,0.36c0.6,0.15,1.18,0.05,1.72-0.2
	c0.21-0.1,0.33-0.42,0.29-0.64c-0.04,0.04-0.08,0.08-0.12,0.12c-0.23,0.21-0.49,0.38-0.8,0.47c-0.57,0.16-1.15-0.08-1.47-0.64
	c-0.42-0.73-0.47-1.51-0.22-2.31c0.12-0.39,0.38-0.68,0.76-0.84c0.6-0.25,1.23,0.02,1.51,0.64c0.18,0.41,0.26,0.85,0.34,1.28
	C9.59,15.53,9.59,15.74,9.61,15.95z M7.38,18.12c-0.01,0-0.02,0-0.03,0c-0.01,0.13-0.04,0.27-0.02,0.4c0.01,0.06,0.13,0.11,0.2,0.15
	c0.58,0.32,1.21,0.52,1.85,0.65c1.18,0.24,2.38,0.32,3.58,0.24c0.76-0.05,1.52-0.11,2.27-0.26c0.43-0.09,0.85-0.21,1.26-0.39
	c0.03-0.02,0.07-0.06,0.07-0.09c0-0.08-0.02-0.15-0.03-0.22c-0.17,0.03-0.32,0.09-0.48,0.09c-0.65,0.02-1.3,0.02-1.95,0.05
	c-1.01,0.04-2.03,0.08-3.04,0.12c-0.98,0.05-1.95,0-2.89-0.31C7.87,18.46,7.58,18.37,7.38,18.12z M5.08,11.21
	c-0.01,0.06-0.01,0.09-0.02,0.11C5.04,11.69,5,12.05,4.98,12.4c-0.06,0.88-0.06,1.75,0.11,2.62c0.11,0.58,0.3,1.13,0.67,1.6
	c0.08,0.1,0.18,0.19,0.26,0.28c0.01-0.01,0.02-0.01,0.03-0.02C6.02,16.72,6,16.56,5.97,16.4c-0.1-0.67-0.16-1.35-0.07-2.03
	c0.01-0.05-0.01-0.11-0.03-0.16c-0.05-0.15-0.12-0.29-0.15-0.44c-0.13-0.6-0.24-1.2-0.36-1.8C5.3,11.72,5.24,11.47,5.08,11.21z
	 M18.23,16.56c0.62-0.81,0.9-1.75,1.01-2.75c0.08-0.72,0.04-1.44,0.01-2.16c0-0.02-0.01-0.05-0.02-0.07
	c-0.09,0.16-0.18,0.33-0.23,0.5c-0.15,0.52-0.29,1.04-0.44,1.56c-0.09,0.29-0.19,0.58-0.29,0.87c-0.02,0.05-0.03,0.1-0.03,0.15
	c0.01,0.32,0.04,0.63,0.04,0.95C18.29,15.93,18.25,16.25,18.23,16.56z M18.06,17.27c0.9-0.25,1.74-0.61,2.42-1.26
	c-0.23,0.03-0.45,0.08-0.67,0.14c-0.5,0.13-0.97,0.32-1.41,0.59C18.21,16.87,18.17,17.09,18.06,17.27z M8.93,13.92
	c0-0.18-0.33-0.43-0.55-0.43c-0.19,0-0.42,0.27-0.42,0.49c0,0.25,0.26,0.49,0.53,0.49C8.73,14.47,8.93,14.21,8.93,13.92z
	 M4.04,15.88c0.56,0.65,1.28,1,2.07,1.25c-0.02-0.04-0.05-0.06-0.07-0.09c-0.17-0.17-0.33-0.33-0.5-0.5
	c-0.08-0.07-0.15-0.16-0.24-0.2C4.9,16.13,4.48,15.99,4.04,15.88z"/>
<path d="M11.97,13.63c0.38,0,0.75,0.08,1.11,0.22c0.03,0.01,0.05,0.05,0.08,0.07c-0.04,0-0.08,0.02-0.11,0.01
	c-0.59-0.19-1.18-0.23-1.78-0.06c-0.03,0.01-0.07-0.01-0.1-0.01c0.02-0.03,0.04-0.07,0.07-0.08C11.46,13.66,11.71,13.63,11.97,13.63
	z"/>
<path d="M12.79,13.42c-0.16-0.02-0.33-0.05-0.49-0.07c-0.23-0.03-0.46-0.03-0.68,0.05c-0.03,0.01-0.08-0.01-0.12-0.02
	c0.02-0.04,0.03-0.09,0.06-0.11c0.15-0.1,0.33-0.12,0.51-0.09c0.24,0.04,0.47,0.11,0.71,0.17c0.01,0,0.02,0.03,0.04,0.04
	C12.8,13.4,12.8,13.41,12.79,13.42z"/>
<path d="M17.28,14.99c0.03,0.73-0.18,1.34-0.62,1.88c-0.19,0.24-0.43,0.42-0.75,0.46c-0.3,0.03-0.56-0.07-0.79-0.25
	c-0.19-0.16-0.35-0.33-0.52-0.51c-0.03-0.04-0.05-0.11-0.05-0.16c0.03-0.4,0.03-0.8,0.11-1.19s0.21-0.77,0.36-1.14
	c0.29-0.71,1.02-0.77,1.54-0.51c0.48,0.24,0.68,0.66,0.71,1.17C17.28,14.84,17.28,14.93,17.28,14.99z M15.29,14.14
	c0,0.3,0.16,0.49,0.42,0.49s0.47-0.21,0.47-0.48c0-0.29-0.22-0.53-0.47-0.53C15.49,13.63,15.29,13.88,15.29,14.14z"/>
<path d="M12.14,19.5c-0.55,0.02-0.95-0.06-1.34-0.19c-0.04-0.01-0.08-0.03-0.11-0.05c-0.02-0.02-0.04-0.05-0.05-0.08
	c0.03-0.01,0.06-0.03,0.09-0.03c0.14,0.03,0.28,0.06,0.42,0.09c0.33,0.07,0.67,0.07,1,0.04c0.42-0.04,0.84-0.08,1.25-0.12
	c0.09-0.01,0.19-0.04,0.28-0.06c0.03-0.01,0.06,0.01,0.09,0.01c-0.02,0.03-0.03,0.07-0.06,0.07c-0.28,0.08-0.56,0.17-0.84,0.23
	S12.29,19.48,12.14,19.5z"/>
</svg>
